<svg width="17" height="17" viewBox="0 0 17 17" fill="none" xmlns="http://www.w3.org/2000/svg">
<path fill-rule="evenodd" clip-rule="evenodd" d="M8.50004 9.97372L14.3927 15.8664C14.5892 16.0562 14.8523 16.1612 15.1255 16.1588C15.3986 16.1564 15.6598 16.0469 15.853 15.8537C16.0461 15.6606 16.1557 15.3993 16.158 15.1262C16.1604 14.8531 16.0554 14.59 15.8657 14.3935L9.97296 8.50081L15.8657 2.6081C16.0554 2.41164 16.1604 2.14851 16.158 1.87539C16.1557 1.60227 16.0461 1.341 15.853 1.14787C15.6598 0.954737 15.3986 0.845186 15.1255 0.842813C14.8523 0.840439 14.5892 0.945434 14.3927 1.13518L8.50004 7.02789L2.60733 1.13518C2.40999 0.950124 2.14839 0.849104 1.87788 0.853496C1.60738 0.857889 1.3492 0.96735 1.15797 1.15872C0.966734 1.35008 0.857456 1.60834 0.853255 1.87885C0.849054 2.14936 0.950259 2.41088 1.13546 2.6081L7.02712 8.50081L1.13441 14.3935C1.03492 14.4896 0.955569 14.6045 0.900976 14.7316C0.846383 14.8587 0.817647 14.9954 0.816446 15.1337C0.815244 15.272 0.841599 15.4092 0.893975 15.5372C0.946351 15.6652 1.0237 15.7815 1.1215 15.8793C1.21931 15.9771 1.33561 16.0545 1.46363 16.1069C1.59165 16.1592 1.72881 16.1856 1.86712 16.1844C2.00544 16.1832 2.14212 16.1545 2.26921 16.0999C2.3963 16.0453 2.51124 15.9659 2.60733 15.8664L8.50004 9.97372Z" fill="#353232"/>
</svg>
